<svg width="140" height="32" viewBox="0 0 140 32" fill="none" xmlns="http://www.w3.org/2000/svg">
<path d="M36.5128 22.2873L40.8205 1.73347H50.1743L44.5128 25.3642C43.4872 29.5489 40.8615 31.1078 37.1692 31.1078C33.5179 31.1078 30.8923 29.5489 29.8666 25.3642L27.241 14.4514L24.6154 25.3642C23.6307 29.5489 21.0051 31.1078 17.3128 31.1078C13.6615 31.1078 10.9948 29.5489 10.0102 25.3642L4.34869 1.73347H13.6615L18.0102 22.2873L21.5384 5.67193C22.1949 2.55398 24.4102 1.03603 27.241 1.03603C30.1128 1.03603 32.3282 2.55398 32.9846 5.67193L36.5128 22.2873ZM72.2413 12.2771V1.73347H81.1849V30.4514H72.2413V19.8668H61.3695V30.4514H52.467V1.73347H61.3695V12.2771H72.2413ZM94.142 30.4514H85.2394V1.73347H94.142V30.4514ZM127.595 1.03603C132.395 1.03603 134.651 4.19501 134.651 8.09245V30.4514H125.748V12.9335L120.333 24.995C119.636 26.513 118.077 27.5386 116.354 27.5386C114.671 27.5386 113.112 26.513 112.415 24.995L107 12.9335V30.4514H98.0971V8.09245C98.0971 4.19501 100.354 1.03603 105.112 1.03603C108.189 1.03603 110.487 2.71809 111.595 5.3027L116.354 15.8463L121.113 5.3027C122.261 2.71809 124.518 1.03603 127.595 1.03603Z" fill="#262626"/>
</svg>
